<?xml version="1.0" standalone="no"?>
<!DOCTYPE svg PUBLIC "-//W3C//DTD SVG 20010904//EN"
 "http://www.w3.org/TR/2001/REC-SVG-20010904/DTD/svg10.dtd">
<svg version="1.0" xmlns="http://www.w3.org/2000/svg"
 width="901.000000pt" height="901.000000pt" viewBox="0 0 901.000000 901.000000"
 preserveAspectRatio="xMidYMid meet">
<metadata>
Created by potrace 1.11, written by Peter Selinger 2001-2013
</metadata>
<g transform="translate(0.000000,901.000000) scale(0.100000,-0.100000)"
fill="#000000" stroke="none">
<path d="M1417 9004 c-1 -1 -27 -5 -57 -8 -30 -3 -65 -8 -76 -10 -12 -2 -37
-7 -55 -10 -33 -5 -56 -10 -101 -22 -13 -3 -34 -7 -48 -10 -13 -3 -30 -10 -37
-16 -7 -6 -13 -7 -13 -3 0 4 -6 2 -13 -4 -8 -6 -22 -12 -33 -14 -21 -4 -65
-22 -106 -44 -16 -8 -28 -11 -28 -8 0 4 -13 -3 -29 -14 -16 -12 -34 -21 -40
-21 -6 0 -11 -4 -11 -10 0 -5 -5 -10 -12 -10 -6 0 -26 -11 -44 -25 -18 -14
-40 -25 -49 -25 -9 0 -14 -4 -10 -9 3 -5 -4 -12 -15 -16 -11 -3 -20 -11 -20
-17 0 -6 -3 -8 -6 -5 -4 4 -15 -3 -25 -15 -11 -11 -19 -18 -19 -13 0 4 -16
-10 -36 -31 -20 -22 -32 -32 -28 -24 4 8 -18 -12 -49 -44 -31 -33 -57 -64 -57
-68 0 -5 -4 -6 -10 -3 -5 3 -10 1 -10 -5 0 -6 -11 -21 -25 -34 -14 -13 -25
-26 -25 -30 0 -4 -6 -13 -13 -20 -6 -8 -19 -24 -27 -36 -8 -12 -23 -31 -33
-42 -9 -12 -17 -27 -17 -35 0 -7 -4 -13 -10 -13 -5 0 -10 -6 -10 -13 0 -7 -8
-22 -17 -33 -10 -11 -19 -26 -21 -34 -2 -8 -8 -18 -14 -21 -5 -3 -10 -10 -10
-15 0 -5 -7 -25 -16 -44 -8 -19 -16 -37 -16 -40 -1 -3 -5 -11 -9 -17 -5 -7
-10 -21 -12 -30 -2 -10 -9 -31 -16 -48 -13 -32 -15 -38 -23 -72 -3 -13 -8 -32
-11 -43 -24 -95 -26 -108 -41 -225 -9 -68 -11 -6257 -2 -6320 72 -523 369
-941 835 -1174 116 -58 210 -88 433 -138 19 -4 1457 -8 3195 -10 3426 -2 3158
-6 3388 42 121 25 333 118 455 200 100 66 113 76 162 120 286 255 456 572 507
945 9 64 8 6273 -1 6346 -8 63 -13 101 -21 141 -3 18 -5 34 -4 35 1 2 -3 13
-9 24 -6 12 -14 36 -17 54 -3 18 -10 41 -16 51 -5 11 -8 19 -5 19 5 0 -21 64
-67 160 -17 36 -31 68 -31 72 -1 4 -7 13 -13 19 -7 7 -13 17 -13 21 0 5 -9 18
-20 30 -10 12 -17 25 -14 30 3 4 -2 11 -10 14 -9 3 -16 11 -16 18 0 6 -14 26
-31 44 -16 17 -28 32 -25 32 7 0 -45 57 -124 136 -98 97 -145 141 -135 125 4
-8 -8 -1 -28 15 -20 16 -37 32 -37 37 0 4 -7 7 -15 7 -8 0 -15 5 -15 12 0 6
-3 8 -6 5 -4 -3 -18 3 -32 13 -13 11 -30 20 -37 20 -7 0 -15 7 -19 15 -3 8 -9
14 -13 13 -4 -1 -33 9 -63 24 -98 46 -128 58 -144 58 -9 0 -16 4 -16 8 0 5 -6
9 -12 10 -7 0 -51 10 -98 22 -47 12 -92 24 -100 25 -8 2 -15 4 -15 5 0 1 -13
3 -30 5 -16 1 -52 6 -80 10 -39 6 -6231 15 -6238 9z"/>
</g>
</svg>
